<?xml version="1.0" encoding="UTF-8"?>
<svg xmlns="http://www.w3.org/2000/svg" width="0" height="0">
	<defs>
		<symbol viewBox="0 0 24 24" id="triangle-alert"><path fill="none" stroke="currentColor" stroke-linecap="round" stroke-linejoin="round" stroke-width="1.5" d="m21.73 18l-8-14a2 2 0 0 0-3.48 0l-8 14A2 2 0 0 0 4 21h16a2 2 0 0 0 1.73-3M12 9v4m0 4h.01"/></symbol>
		<symbol viewBox="0 0 24 24" id="circle-x"><g fill="none" stroke="currentColor" stroke-linecap="round" stroke-linejoin="round" stroke-width="1.5"><circle cx="12" cy="12" r="10"/><path d="m15 9l-6 6m0-6l6 6"/></g></symbol>
		<symbol viewBox="0 0 24 24" id="check"><path fill="none" stroke="currentColor" stroke-linecap="round" stroke-linejoin="round" stroke-width="1.5" d="M20 6L9 17l-5-5"/></symbol>
		<symbol viewBox="0 0 24 24" id="circle-check"><g fill="none" stroke="currentColor" stroke-linecap="round" stroke-linejoin="round" stroke-width="1.5"><circle cx="12" cy="12" r="10"/><path d="m9 12l2 2l4-4"/></g></symbol>
	</defs>
</svg>
